<?xml version="1.0" encoding="utf-8"?>
<!-- Generator: Adobe Illustrator 16.0.0, SVG Export Plug-In . SVG Version: 6.00 Build 0)  -->
<!DOCTYPE svg PUBLIC "-//W3C//DTD SVG 1.1//EN" "http://www.w3.org/Graphics/SVG/1.1/DTD/svg11.dtd">
<svg version="1.1" id="Layer_1" xmlns="http://www.w3.org/2000/svg" xmlns:xlink="http://www.w3.org/1999/xlink" x="0px" y="0px"
	 width="430.152px" height="95.987px" viewBox="86.261 364.042 430.152 95.987"
	 enable-background="new 86.261 364.042 430.152 95.987" xml:space="preserve">
<polygon points="40.244,366.367 40.248,366.363 40.248,366.359 "/>
<polygon points="40.21,366.48 40.216,366.473 40.216,366.461 "/>
<g>
	<polygon fill="#231F20" points="134.311,394.857 136.636,369.538 126.879,369.538 124.551,394.876 	"/>
	<polygon fill="#231F20" points="116.226,369.538 110.236,434.759 100.484,434.759 106.469,369.538 	"/>
	<polygon fill="#231F20" points="114.803,385.052 86.261,385.052 86.261,394.85 113.902,394.85 	"/>
	<polygon fill="#60B2A8" points="117.626,385.052 116.733,394.85 150.859,394.85 150.859,385.052 	"/>
	<polygon fill="#60B2A8" points="115.28,410.724 114.387,420.521 150.859,420.521 150.859,410.724 	"/>
	<polygon fill="#231F20" points="112.444,410.724 86.261,410.724 86.261,420.521 111.546,420.521 	"/>
	<polygon fill="#231F20" points="121.943,423.353 120.895,434.759 130.646,434.759 131.702,423.275 	"/>
	<polygon fill="#231F20" points="124.294,397.693 123.361,407.884 133.118,407.862 134.054,397.617 	"/>
</g>
</svg>